HIERARCHY
ROOT Hips
{
    OFFSET 0.000000 0.000000 0.000000
    CHANNELS 6 Xposition Yposition Zposition Zrotation Xrotation Yrotation
    JOINT Spine
    {
        OFFSET -0.000000 7.246840 0.000000
        CHANNELS 3 Zrotation Xrotation Yrotation
        JOINT Spine1
        {
            OFFSET -0.000000 20.289354 0.000000
            CHANNELS 3 Zrotation Xrotation Yrotation
            JOINT Neck
            {
                OFFSET -0.000000 20.206032 1.836912
                CHANNELS 3 Zrotation Xrotation Yrotation
                JOINT Head
                {
                    OFFSET -0.000000 12.372654 -1.767522
                    CHANNELS 3 Zrotation Xrotation Yrotation
                    End Site
                    {
                        OFFSET -0.000000 22.094025 0.000000
                    }
                }
            }
            JOINT LeftShoulder
            {
                OFFSET 3.465871 17.201674 -0.568930
                CHANNELS 3 Zrotation Xrotation Yrotation
                JOINT LeftArm
                {
                    OFFSET 14.070313 0.000000 0.000000
                    CHANNELS 3 Zrotation Xrotation Yrotation
                    JOINT LeftForeArm
                    {
                        OFFSET 26.549477 0.000000 0.000000
                        CHANNELS 3 Zrotation Xrotation Yrotation
                        JOINT LeftHand
                        {
                            OFFSET 18.880413 0.000000 0.000000
                            CHANNELS 3 Zrotation Xrotation Yrotation
                            End Site
                            {
                                OFFSET 13.256415 0.000000 0.000000
                            }
                        }
                    }
                }
            }
            JOINT RightShoulder
            {
                OFFSET -3.526370 17.201674 -0.568930
                CHANNELS 3 Zrotation Xrotation Yrotation
                JOINT RightArm
                {
                    OFFSET -14.070313 0.000000 0.000000
                    CHANNELS 3 Zrotation Xrotation Yrotation
                    JOINT RightForeArm
                    {
                        OFFSET -26.549477 0.000000 0.000000
                        CHANNELS 3 Zrotation Xrotation Yrotation
                        JOINT RightHand
                        {
                            OFFSET -18.880413 0.000000 0.000000
                            CHANNELS 3 Zrotation Xrotation Yrotation
                            End Site
                            {
                                OFFSET -13.256415 0.000000 0.000000
                            }
                        }
                    }
                }
            }
        }
    }
    JOINT LeftUpLeg
    {
        OFFSET 8.837609 0.000000 0.000000
        CHANNELS 3 Zrotation Xrotation Yrotation
        JOINT LeftLeg
        {
            OFFSET -0.000000 -41.345005 0.000000
            CHANNELS 3 Zrotation Xrotation Yrotation
            JOINT LeftFoot
            {
                OFFSET -0.000000 -35.500874 0.000000
                CHANNELS 3 Zrotation Xrotation Yrotation
                JOINT LeftToeBase
                {
                    OFFSET -0.000000 -5.744446 13.256415
                    CHANNELS 3 Zrotation Xrotation Yrotation
                    End Site
                    {
                        OFFSET -0.000000 0.000000 3.535044
                    }
                }
            }
        }
    }
    JOINT RightUpLeg
    {
        OFFSET -8.837609 0.000000 0.000000
        CHANNELS 3 Zrotation Xrotation Yrotation
        JOINT RightLeg
        {
            OFFSET -0.000000 -41.345005 0.000000
            CHANNELS 3 Zrotation Xrotation Yrotation
            JOINT RightFoot
            {
                OFFSET -0.000000 -35.500874 0.000000
                CHANNELS 3 Zrotation Xrotation Yrotation
                JOINT RightToeBase
                {
                    OFFSET -0.000000 -5.744446 13.256415
                    CHANNELS 3 Zrotation Xrotation Yrotation
                    End Site
                    {
                        OFFSET -0.000000 0.000000 3.535044
                    }
                }
            }
        }
    }
}
MOTION
Frames:    7
Frame Time:    0.010000
0.780508    82.407913    75.872726    3.164087    5.057456    1.293685    -7.514177    -14.636896    -1.100269    2.597392    7.977242    -0.315071    2.674389    21.755369    -1.263418    3.954088    -5.647540    -0.418784    7.693712    4.792366    10.601031    -81.614258    56.245300    1.729425    5.975904    -19.559713    -82.507645    -65.975410    -7.731424    -10.654795    -8.774875    7.658179    4.959857    83.779510    54.317150    -4.395555    -19.223442    -25.399763    79.906158    39.983620    -6.585764    9.067164    -2.276155    7.797097    3.464887    -0.983214    -10.736814    0.333345    5.403468    0.283739    -2.700068    -0.171338    -3.300679    0.244799    -13.333098    1.151773    -5.401186    7.333123    -12.201893    -0.275431    4.534535    5.611924    -7.835368    0.111937    3.121527    -0.194299    
0.757255    82.392677    75.862625    3.140068    5.006629    1.155863    -7.496530    -14.465585    -1.061130    2.649315    7.828239    -0.290274    2.614938    21.675207    -1.247670    3.880551    -5.607134    -0.422950    7.671576    4.843724    10.708396    -81.929268    56.194721    2.050149    6.091684    -19.554785    -82.470276    -65.874741    -7.555836    -10.787173    -8.817429    7.669307    4.983075    83.741470    54.410961    -4.529639    -19.088562    -25.398022    80.054672    40.040592    -6.513210    9.451694    -2.277486    7.905014    3.430520    -0.900098    -10.837953    0.410318    5.392557    0.307367    -2.595845    -0.202655    -3.260237    0.289469    -13.307103    1.084424    -5.990330    7.498638    -11.982043    0.363495    4.503566    5.580426    -7.731833    0.105471    3.103202    -0.183111    
0.741042    82.370461    75.847908    3.139154    4.974298    0.998307    -7.485911    -14.307117    -1.018147    2.706392    7.658961    -0.258396    2.472496    21.622566    -1.224477    3.861159    -5.575036    -0.412244    7.856091    4.986767    10.646707    -82.613350    55.951035    2.501032    6.343680    -19.621567    -82.268166    -65.954643    -7.257132    -11.029261    -8.850830    7.686517    5.018152    83.612122    54.467972    -4.629967    -18.691170    -25.447826    80.296219    40.183666    -6.777112    9.605227    -2.308510    8.012000    3.311247    -0.828192    -10.992821    0.614847    5.386399    0.374029    -2.500860    -0.172481    -3.254646    0.246360    -13.307002    1.053092    -6.053594    7.540797    -11.960514    0.472461    4.505482    5.607590    -7.626193    0.121752    3.126628    -0.211325    
0.727855    82.346581    75.829956    3.140978    4.949439    0.840085    -7.450127    -14.147961    -0.968978    2.748349    7.469592    -0.224120    2.258840    21.559853    -1.208449    3.879328    -5.472578    -0.407828    7.794055    5.084245    10.768428    -82.827858    55.920723    2.722861    6.460858    -19.671131    -82.227036    -66.071045    -7.118350    -11.147032    -8.884776    7.684952    5.057268    83.449142    54.368225    -4.722554    -18.135090    -25.305119    80.643829    40.361839    -7.042905    9.472789    -2.342921    8.122155    3.165370    -0.744349    -11.169701    0.812475    5.389168    0.436642    -2.391673    -0.192422    -3.232058    0.274803    -13.316330    1.013999    -6.072644    7.626831    -11.968284    0.531405    4.455503    5.668029    -7.510663    0.082642    3.131744    -0.143436    
0.718671    82.322784    75.811577    3.157351    4.929586    0.675404    -7.417247    -13.997126    -0.921735    2.786114    7.288169    -0.188078    1.726371    22.098574    -1.070502    4.370075    -6.356496    -0.156551    7.727022    5.140841    10.903459    -83.055580    55.822697    2.956735    6.473461    -19.688482    -82.219208    -66.228706    -7.088325    -11.171819    -8.906489    7.653616    5.111280    83.312363    54.261776    -4.873409    -17.628012    -25.160654    80.861511    40.453915    -7.206655    9.624645    -2.393650    8.233630    3.015569    -0.662416    -11.329011    0.742399    5.396195    0.508541    -1.996156    -0.202331    -3.236273    0.288962    -13.343235    0.970263    -6.045770    7.683076    -11.975814    0.589137    4.431983    5.714228    -7.439611    0.085821    3.135384    -0.148948    
0.718318    82.292534    75.780746    3.214377    4.998477    0.514903    -7.401763    -13.932661    -0.881474    2.803657    7.099492    -0.147947    1.715962    21.452023    -1.140906    4.008693    -5.278880    -0.349012    7.633268    5.190525    11.033460    -83.221802    55.689960    3.143162    6.469642    -19.677486    -82.223900    -66.417290    -7.080572    -11.130504    -8.934709    7.644035    5.179605    83.172821    54.179119    -4.996525    -17.048883    -25.005798    81.047325    40.268913    -7.471608    9.744293    -2.477247    8.238122    2.859035    -0.603754    -11.489926    0.965231    5.402396    0.559747    -1.925412    -0.220783    -3.179325    0.315200    -13.431797    0.833423    -5.990299    7.743450    -11.968571    0.716914    4.401542    5.737511    -7.490297    0.073278    3.150627    -0.127160    
0.711419    82.270149    75.750687    3.250961    5.058702    0.347520    -7.374419    -13.871993    -0.836608    2.827144    6.925262    -0.108854    1.147212    22.013145    -1.002933    4.542401    -6.148101    -0.093651    7.532556    5.216864    11.163068    -83.350098    55.483967    3.288840    6.389313    -19.597523    -82.231308    -66.569801    -7.104213    -11.039955    -8.954463    7.619650    5.291641    83.070961    54.065308    -5.170548    -16.527653    -24.874796    81.288574    40.159660    -7.707273    9.823794    -2.527811    8.244487    2.728629    -0.556159    -11.642583    1.217780    5.384070    0.584914    -1.879922    -0.203542    -3.150280    0.290532    -13.477513    0.699033    -5.902798    7.775929    -11.965961    0.803049    4.404463    5.754542    -7.514282    0.077187    3.178154    -0.133905    
